<?xml version="1.0" standalone="no"?>
<!DOCTYPE svg PUBLIC "-//W3C//DTD SVG 20010904//EN"
 "http://www.w3.org/TR/2001/REC-SVG-20010904/DTD/svg10.dtd">
<svg version="1.0" xmlns="http://www.w3.org/2000/svg"
 width="512.000000pt" height="512.000000pt" viewBox="0 0 512.000000 512.000000"
 preserveAspectRatio="xMidYMid meet">

<g transform="translate(0.000000,512.000000) scale(0.100000,-0.100000)"
fill="#000000" stroke="none">
<path d="M2211 4200 c-57 -21 -68 -27 -120 -74 -111 -101 -140 -263 -72 -400
25 -50 72 -103 273 -303 186 -185 250 -243 268 -243 19 0 84 60 276 253 293
294 298 303 299 442 0 77 -4 98 -26 146 -89 188 -330 258 -500 144 l-50 -34
-41 29 c-82 60 -206 76 -307 40z m196 -139 c23 -11 62 -38 86 -60 25 -23 54
-41 67 -41 13 0 42 18 67 41 83 76 168 97 249 60 104 -47 151 -167 105 -266
-12 -25 -95 -116 -220 -240 l-201 -200 -201 200 c-125 124 -208 215 -220 240
-27 58 -24 113 9 176 49 94 162 133 259 90z"/>
<path d="M893 3088 c-12 -6 -27 -25 -33 -42 -18 -49 -24 -198 -11 -267 7 -33
10 -63 7 -66 -10 -10 -172 52 -221 86 -59 40 -100 44 -127 12 -47 -58 3 -221
113 -368 37 -50 39 -55 33 -105 -7 -62 8 -128 41 -179 18 -29 22 -44 18 -82
-8 -70 14 -133 63 -184 28 -30 46 -60 54 -91 6 -26 22 -67 36 -91 l24 -44 -92
7 c-51 3 -174 13 -273 21 -259 21 -286 20 -315 -10 -22 -24 -23 -29 -17 -139
16 -279 94 -481 236 -608 56 -51 84 -50 153 6 89 72 201 141 264 162 49 16 88
19 239 19 99 0 268 -4 375 -9 275 -12 410 7 565 83 141 69 256 195 297 325 24
76 20 218 -11 374 -23 114 -26 174 -11 203 6 10 51 46 100 79 145 98 147 133
13 205 -29 16 -53 32 -53 37 0 27 -57 124 -97 163 -108 108 -267 142 -410 87
l-49 -19 -38 45 c-68 77 -125 106 -361 183 -249 81 -366 132 -410 177 -34 35
-70 46 -102 30z m168 -232 c41 -19 166 -64 277 -100 234 -76 263 -89 316 -145
l39 -40 -48 -53 c-27 -29 -50 -55 -52 -57 -1 -2 -21 17 -43 42 -57 65 -147
121 -222 140 -34 9 -117 20 -183 24 l-120 8 -17 52 c-18 53 -35 163 -26 163 3
0 38 -15 79 -34z m-273 -272 c107 -31 235 -51 387 -63 190 -14 241 -50 393
-279 52 -79 104 -147 115 -151 46 -17 97 16 97 64 0 11 -23 54 -50 95 -27 41
-50 81 -50 88 0 7 39 53 88 101 102 103 155 128 246 117 110 -15 178 -73 213
-183 13 -42 24 -58 47 -70 l31 -16 -25 -15 c-48 -31 -106 -98 -118 -139 -18
-61 -15 -136 14 -289 44 -235 28 -312 -90 -430 -69 -68 -153 -114 -262 -141
-82 -20 -278 -23 -629 -9 -201 8 -241 7 -315 -8 -103 -21 -201 -66 -301 -140
l-74 -54 -22 20 c-55 52 -117 205 -138 348 -23 150 -26 143 48 136 441 -41
521 -42 610 -11 45 15 54 15 111 1 85 -22 131 -21 156 4 40 40 14 103 -47 115
-196 40 -246 77 -261 192 -9 62 -32 103 -58 103 -20 0 -54 50 -54 79 1 14 7
37 15 51 22 39 18 57 -26 105 -37 40 -42 51 -42 93 0 26 3 66 8 89 7 39 5 44
-47 110 -30 37 -62 81 -72 97 -18 28 -18 29 0 22 11 -4 57 -18 102 -32z"/>
<path d="M4170 3093 c-8 -3 -28 -19 -45 -35 -47 -48 -135 -86 -388 -170 -256
-84 -316 -114 -382 -190 l-39 -45 -48 19 c-186 70 -400 -12 -482 -187 -14 -29
-26 -58 -26 -63 0 -5 -24 -21 -52 -37 -135 -72 -133 -112 11 -204 44 -28 87
-61 95 -73 21 -30 20 -87 -5 -210 -30 -152 -36 -289 -15 -363 22 -76 92 -181
164 -245 71 -64 193 -123 307 -151 105 -26 289 -30 661 -15 255 10 309 4 419
-50 39 -19 110 -65 159 -104 107 -84 127 -87 187 -33 142 128 221 333 236 611
6 108 5 113 -17 137 -29 30 -56 31 -315 10 -99 -9 -222 -18 -273 -22 l-92 -6
24 44 c14 24 30 65 36 91 8 31 26 61 54 91 49 51 71 114 63 184 -4 38 -1 53
19 82 30 46 48 130 39 187 -6 40 -3 48 33 96 59 79 99 156 117 223 20 78 19
118 -3 146 -27 32 -68 28 -127 -12 -50 -34 -211 -96 -221 -86 -3 3 -1 29 5 57
14 65 14 175 0 239 -14 68 -53 101 -99 84z m-33 -255 c-3 -29 -14 -78 -24
-108 l-18 -55 -110 -8 c-218 -15 -287 -40 -393 -144 -36 -35 -66 -62 -67 -61
-1 2 -23 27 -50 56 l-48 53 39 41 c35 36 142 98 170 98 24 0 354 114 419 145
39 18 74 34 79 34 5 1 6 -23 3 -51z m296 -245 c-9 -16 -38 -54 -63 -86 -69
-90 -70 -93 -53 -141 21 -61 10 -111 -37 -163 -43 -46 -47 -64 -25 -103 8 -14
14 -37 15 -51 0 -30 -34 -79 -55 -79 -22 0 -55 -50 -55 -84 0 -56 -20 -104
-55 -135 -34 -29 -123 -62 -207 -76 -63 -10 -89 -74 -48 -115 25 -25 73 -26
155 -4 56 14 64 14 115 -3 70 -23 202 -23 469 0 107 10 196 15 198 13 9 -9
-20 -203 -39 -265 -25 -82 -67 -166 -105 -208 l-28 -32 -74 55 c-99 73 -197
119 -301 140 -74 15 -113 16 -310 8 -346 -14 -552 -11 -634 9 -100 25 -188 70
-254 132 -123 114 -143 202 -98 439 28 151 32 234 15 287 -16 48 -54 95 -100
126 l-40 26 27 18 c18 12 35 39 49 78 29 79 64 124 117 149 66 31 127 37 195
17 51 -15 69 -28 146 -105 48 -49 87 -95 87 -102 0 -7 -23 -47 -50 -88 -27
-41 -50 -84 -50 -95 0 -49 59 -87 100 -65 12 6 58 68 104 138 101 154 158 219
226 256 45 25 69 30 174 37 190 14 336 41 451 83 56 20 58 20 38 -11z"/>
<path d="M3136 1559 c-32 -25 -35 -70 -6 -99 43 -43 189 -100 257 -100 41 0
73 30 73 68 0 40 -27 61 -101 78 -34 8 -86 28 -115 44 -61 36 -73 37 -108 9z"/>
</g>
</svg>
