<?xml version="1.0" standalone="no"?>
<!DOCTYPE svg PUBLIC "-//W3C//DTD SVG 20010904//EN"
 "http://www.w3.org/TR/2001/REC-SVG-20010904/DTD/svg10.dtd">
<svg version="1.0" xmlns="http://www.w3.org/2000/svg"
 width="512.000000pt" height="512.000000pt" viewBox="0 0 512.000000 512.000000"
 preserveAspectRatio="xMidYMid meet">

<g transform="translate(0.000000,512.000000) scale(0.100000,-0.100000)"
fill="#000000" stroke="none">
<path d="M2130 4822 c-261 -70 -422 -347 -355 -607 34 -128 58 -158 403 -507
178 -179 337 -332 353 -338 23 -10 35 -10 58 0 16 6 175 159 353 338 258 261
330 339 355 388 131 248 50 534 -191 678 -148 89 -372 85 -510 -9 l-36 -24
-36 24 c-100 68 -267 92 -394 57z m204 -147 c46 -8 126 -46 146 -70 22 -27 70
-47 96 -41 13 4 38 19 56 35 137 119 348 110 475 -21 101 -104 126 -251 65
-383 -30 -62 -61 -97 -322 -359 l-289 -291 -266 265 c-287 286 -332 338 -361
415 -72 194 62 420 268 454 29 4 62 7 73 5 11 -1 38 -6 59 -9z"/>
<path d="M1340 3320 c-395 -54 -743 -246 -990 -545 -158 -193 -267 -421 -321
-675 -33 -152 -33 -438 0 -590 77 -363 265 -671 546 -897 190 -152 435 -263
680 -309 137 -26 422 -26 550 0 259 51 513 172 702 333 l52 45 68 -55 c209
-168 441 -275 698 -323 148 -28 422 -25 565 5 356 75 656 255 880 526 159 193
266 420 322 678 31 147 31 437 0 584 -151 705 -726 1199 -1432 1230 -382 17
-763 -112 -1047 -354 l-52 -45 -68 55 c-202 162 -426 268 -672 318 -110 22
-379 33 -481 19z m415 -166 c181 -29 372 -105 540 -216 100 -65 294 -259 358
-355 166 -251 239 -489 239 -778 0 -171 -23 -309 -74 -453 -29 -83 -93 -222
-103 -222 -2 0 -18 20 -34 44 l-31 44 29 64 c83 182 115 357 108 573 -6 158
-22 246 -73 385 -109 304 -361 579 -655 714 -425 195 -925 142 -1295 -138
-133 -100 -284 -270 -284 -319 0 -40 15 -63 48 -75 41 -14 73 4 123 68 274
352 749 507 1177 384 123 -35 272 -111 375 -189 48 -37 87 -70 87 -74 0 -4
-25 -56 -55 -115 -61 -120 -114 -275 -142 -411 -27 -137 -25 -444 5 -582 29
-136 72 -254 140 -391 l56 -113 -35 -30 c-63 -55 -182 -132 -263 -170 -568
-266 -1242 -9 -1492 569 -105 243 -118 506 -37 774 25 83 25 88 9 113 -38 58
-106 51 -138 -16 -10 -19 -27 -69 -37 -111 -137 -535 76 -1085 536 -1385 361
-235 826 -269 1220 -88 86 40 224 128 283 181 l43 39 34 -40 35 -40 -44 -38
c-24 -21 -79 -62 -123 -91 -229 -153 -479 -228 -760 -228 -373 0 -700 136
-966 401 -181 181 -303 396 -366 647 -26 102 -28 123 -28 319 0 196 2 217 28
319 129 509 523 899 1027 1016 167 38 346 43 535 14z m1980 11 c141 -9 341
-67 484 -139 91 -46 231 -148 316 -228 192 -182 326 -411 392 -675 26 -101 28
-122 28 -318 0 -196 -2 -217 -28 -319 -63 -251 -185 -466 -366 -647 -268 -267
-594 -402 -971 -401 -282 1 -530 77 -770 237 -96 63 -291 258 -353 352 -167
253 -240 491 -239 783 1 166 24 306 74 448 29 83 93 222 103 222 2 0 18 -20
34 -44 l31 -44 -29 -64 c-83 -182 -115 -357 -108 -573 6 -158 22 -246 73 -385
177 -493 656 -830 1181 -830 307 0 582 98 814 290 76 63 171 163 217 228 45
62 16 132 -53 132 -39 0 -44 -4 -124 -102 -223 -275 -602 -428 -959 -388 -237
26 -418 106 -635 281 -20 16 -20 18 41 140 66 135 110 264 139 404 27 137 25
444 -5 582 -29 136 -72 254 -140 391 l-56 113 35 29 c328 282 782 354 1171
186 410 -177 670 -571 671 -1016 0 -137 -10 -211 -50 -342 -25 -83 -25 -88 -9
-113 25 -38 57 -50 92 -34 35 17 58 60 83 161 138 539 -78 1090 -547 1392
-353 228 -821 259 -1209 81 -86 -40 -224 -128 -283 -181 l-43 -39 -34 40 -35
40 44 38 c153 134 388 249 598 292 91 19 253 34 310 29 19 -2 71 -6 115 -9z
m-1146 -1037 c36 -122 45 -188 45 -323 0 -71 -6 -157 -12 -190 -17 -83 -53
-205 -62 -205 -9 0 -45 122 -62 205 -15 77 -15 303 0 380 17 83 53 205 62 205
4 0 17 -33 29 -72z"/>
</g>
</svg>
