<?xml version="1.0" standalone="no"?>
<!DOCTYPE svg PUBLIC "-//W3C//DTD SVG 20010904//EN"
 "http://www.w3.org/TR/2001/REC-SVG-20010904/DTD/svg10.dtd">
<svg version="1.0" xmlns="http://www.w3.org/2000/svg"
 width="512.000000pt" height="512.000000pt" viewBox="0 0 512.000000 512.000000"
 preserveAspectRatio="xMidYMid meet">

<g transform="translate(0.000000,512.000000) scale(0.100000,-0.100000)"
fill="#000000" stroke="none">
<path d="M702 5110 c-279 -59 -562 -421 -667 -852 -62 -252 -36 -471 77 -663
48 -81 157 -198 235 -252 l53 -36 0 -189 c0 -187 0 -189 25 -213 13 -14 31
-25 39 -25 14 0 16 -121 18 -1082 l3 -1083 27 -51 c40 -76 70 -107 140 -145
58 -31 70 -34 148 -34 78 0 90 3 148 34 70 38 100 69 140 145 l27 51 3 348 3
348 76 -71 c64 -60 201 -170 246 -197 7 -4 24 -37 36 -73 13 -36 40 -92 59
-125 41 -68 141 -171 193 -198 24 -14 41 -34 58 -74 13 -30 44 -75 69 -99 44
-44 44 -46 46 -117 4 -177 137 -309 313 -313 72 -2 74 -2 114 -44 130 -134
348 -128 470 13 24 27 31 30 100 31 178 4 311 136 315 313 2 71 2 73 46 117
25 24 56 69 69 99 17 40 34 60 58 74 52 27 152 130 193 198 19 33 46 89 59
125 12 36 29 69 36 73 45 27 182 137 246 197 l76 71 3 -348 3 -348 27 -51 c40
-76 70 -107 140 -145 58 -31 70 -34 148 -34 78 0 90 3 148 34 70 38 100 69
140 145 l27 51 3 1083 c2 961 4 1082 18 1082 8 0 26 11 39 25 25 24 25 26 25
213 l0 189 55 37 c72 50 182 167 229 244 50 82 92 200 106 297 7 54 10 251 8
607 -3 514 -3 527 -24 554 -47 64 -63 69 -214 69 -151 0 -167 -5 -214 -69 -20
-27 -21 -42 -26 -488 -5 -425 -6 -462 -22 -472 -13 -8 -23 -8 -35 0 -17 10
-18 47 -23 472 -5 446 -6 461 -26 488 -47 64 -63 69 -214 69 -151 0 -167 -5
-214 -69 -20 -27 -21 -42 -26 -488 -5 -425 -6 -462 -22 -472 -13 -8 -23 -8
-35 0 -17 10 -18 47 -23 472 -5 446 -6 461 -26 488 -47 64 -63 69 -214 69
-151 0 -167 -5 -214 -69 -20 -25 -21 -43 -24 -257 -2 -126 -4 -229 -6 -229 -2
0 -52 23 -111 51 -455 215 -982 247 -1467 89 -114 -38 -292 -118 -395 -179
l-51 -30 -45 92 c-124 251 -303 439 -484 507 -65 24 -194 34 -261 20z m243
-189 c211 -98 422 -442 481 -785 40 -229 -20 -429 -176 -586 -76 -76 -167
-132 -265 -163 -57 -18 -93 -22 -190 -22 -104 1 -130 5 -193 27 -166 60 -297
172 -370 318 -70 140 -86 265 -57 433 45 257 178 522 339 675 151 143 280 174
431 103z m2897 -413 l3 -453 24 -38 c13 -21 42 -50 64 -65 34 -23 52 -27 107
-27 55 0 73 4 107 27 22 15 51 44 64 65 l24 38 3 453 3 452 79 0 79 0 3 -452
3 -453 24 -38 c13 -21 42 -50 64 -65 34 -22 52 -27 106 -27 79 0 128 25 169
88 l27 41 3 453 3 453 80 0 80 0 -3 -542 -3 -543 -27 -73 c-38 -104 -83 -176
-158 -252 -76 -76 -167 -132 -265 -163 -57 -18 -93 -22 -190 -22 -104 1 -130
5 -193 27 -166 60 -297 172 -370 318 -70 140 -72 157 -72 738 l0 512 80 0 79
0 3 -452z m-1094 121 c224 -24 436 -87 637 -188 l130 -66 3 -147 3 -148 -89
58 c-170 112 -369 193 -575 234 -151 30 -423 32 -572 4 -209 -39 -423 -124
-592 -234 -50 -33 -94 -58 -97 -55 -3 4 -6 18 -6 32 0 14 -7 58 -16 96 -8 39
-17 81 -20 95 -5 23 3 30 73 72 220 133 492 222 763 251 78 8 266 6 358 -4z
m99 -418 c124 -27 230 -63 338 -116 157 -76 340 -209 350 -255 18 -72 61 -183
97 -244 48 -81 157 -199 233 -252 l55 -37 0 -189 c0 -187 0 -189 25 -213 13
-14 31 -25 40 -25 32 0 10 -283 -35 -453 -78 -294 -259 -568 -497 -754 -83
-65 -85 -65 -186 -83 -107 -18 -188 -49 -260 -98 -34 -24 -55 -31 -109 -33
l-66 -4 -41 42 c-22 23 -64 55 -93 70 -46 23 -65 27 -138 27 -73 0 -92 -4
-138 -27 -29 -15 -71 -47 -93 -70 -41 -42 -41 -42 -107 -38 -54 2 -74 9 -116
37 -74 49 -160 81 -256 95 -74 11 -93 18 -150 57 -36 25 -110 91 -165 146
-177 177 -302 394 -365 631 -45 172 -67 455 -35 455 9 0 27 11 40 25 25 24 25
26 25 213 l0 189 55 37 c76 53 185 171 233 252 38 65 92 204 92 238 0 30 123
130 263 212 151 89 353 158 537 184 104 14 361 4 467 -19z m-2047 -1004 c90 0
153 5 188 15 l52 15 0 -98 0 -99 -240 0 -240 0 0 99 0 98 53 -15 c34 -10 97
-15 187 -15z m3520 0 c90 0 153 5 188 15 l52 15 0 -98 0 -99 -240 0 -240 0 0
99 0 98 53 -15 c34 -10 97 -15 187 -15z m-3362 -1396 c-3 -1063 -3 -1070 -24
-1097 -39 -53 -71 -69 -134 -69 -63 0 -95 16 -134 69 -21 27 -21 34 -24 1097
l-2 1069 160 0 160 0 -2 -1069z m3520 0 c-3 -1063 -3 -1070 -24 -1097 -39 -53
-71 -69 -134 -69 -63 0 -95 16 -134 69 -21 27 -21 34 -24 1097 l-2 1069 160 0
160 0 -2 -1069z m-3203 37 c33 -44 98 -119 144 -166 46 -47 80 -87 74 -89 -42
-14 -48 -30 -53 -142 l-5 -110 -86 77 c-47 42 -118 113 -157 156 l-72 79 0
221 0 221 48 -83 c26 -45 74 -119 107 -164z m2725 24 l0 -218 -75 -82 c-41
-46 -112 -116 -158 -157 l-82 -74 -5 110 c-5 112 -11 128 -53 142 -5 1 27 40
72 86 96 98 185 215 249 328 26 45 48 83 50 83 1 0 2 -98 2 -218z m-2127 -447
c32 -8 74 -23 93 -33 l36 -18 -26 -31 c-46 -55 -70 -121 -72 -200 -2 -71 -2
-74 -42 -113 -23 -21 -51 -58 -63 -82 l-22 -42 -49 53 c-93 101 -128 204 -128
373 l0 108 108 0 c64 0 131 -6 165 -15z m776 -14 c17 -13 43 -45 57 -72 33
-66 60 -76 136 -53 49 15 64 15 100 5 53 -16 93 -56 109 -109 10 -36 10 -51
-6 -102 -23 -76 -14 -100 54 -134 69 -35 96 -77 96 -146 0 -69 -27 -111 -96
-146 -68 -34 -77 -58 -54 -134 16 -51 16 -66 6 -102 -16 -53 -56 -93 -109
-109 -36 -10 -51 -10 -100 5 -76 23 -103 13 -136 -53 -35 -69 -77 -96 -146
-96 -69 0 -111 27 -146 96 -34 68 -58 77 -134 54 -51 -16 -66 -16 -102 -6 -53
16 -93 56 -109 109 -10 36 -10 51 5 100 23 76 13 103 -53 136 -69 35 -96 77
-96 146 0 69 27 111 96 146 66 33 76 60 53 136 -15 49 -15 64 -5 100 16 53 56
93 109 109 36 10 51 10 100 -5 76 -23 103 -13 136 53 23 45 57 78 96 94 30 13
107 0 139 -22z m871 -79 c0 -169 -35 -272 -128 -373 l-49 -53 -22 42 c-12 24
-40 61 -63 82 -40 39 -40 42 -42 113 -2 79 -26 145 -72 200 l-26 31 36 18 c64
33 138 47 254 47 l112 1 0 -108z"/>
<path d="M1965 3589 c-156 -31 -314 -156 -385 -303 -61 -128 -73 -241 -46
-426 38 -248 155 -483 328 -659 170 -173 356 -276 611 -342 93 -24 115 -21
287 33 476 151 806 577 837 1078 12 190 -41 341 -162 463 -241 243 -636 214
-848 -63 l-27 -35 -27 35 c-107 140 -256 218 -428 225 -49 2 -112 0 -140 -6z
m278 -187 c81 -38 122 -74 198 -177 101 -136 137 -136 238 0 76 103 117 139
201 179 58 28 74 31 160 31 86 0 101 -3 162 -32 93 -44 151 -100 196 -191 37
-76 37 -76 36 -202 0 -141 -22 -247 -79 -381 -38 -91 -123 -222 -194 -301
-119 -131 -323 -252 -508 -302 l-93 -25 -92 25 c-186 50 -388 169 -509 301
-70 78 -155 208 -194 302 -57 134 -79 240 -79 381 -1 120 0 128 31 192 40 85
97 147 172 186 78 42 122 52 213 48 60 -3 93 -11 141 -34z"/>
<path d="M2485 1111 c-92 -24 -173 -90 -215 -176 -19 -41 -24 -66 -24 -135 -1
-78 2 -90 33 -148 38 -70 70 -100 145 -140 43 -22 64 -26 136 -26 72 0 93 4
136 26 75 40 107 70 145 140 31 58 34 70 33 148 0 72 -4 93 -26 136 -39 75
-70 107 -137 143 -65 34 -164 49 -226 32z m138 -165 c103 -43 128 -177 48
-257 -65 -65 -157 -65 -222 0 -124 123 13 325 174 257z"/>
</g>
</svg>
