<?xml version="1.0" standalone="no"?>
<!DOCTYPE svg PUBLIC "-//W3C//DTD SVG 20010904//EN"
 "http://www.w3.org/TR/2001/REC-SVG-20010904/DTD/svg10.dtd">
<svg version="1.0" xmlns="http://www.w3.org/2000/svg"
 width="800.000000pt" height="800.000000pt" viewBox="0 0 800.000000 800.000000"
 preserveAspectRatio="xMidYMid meet">

<g transform="translate(0.000000,800.000000) scale(0.100000,-0.100000)"
fill="#000000" stroke="none">
<path d="M3825 7160 c-1221 -64 -2308 -847 -2765 -1990 -86 -217 -147 -438
-188 -684 -25 -150 -26 -182 -27 -481 0 -352 11 -462 76 -733 219 -917 822
-1678 1666 -2101 304 -153 595 -244 963 -303 129 -20 180 -23 450 -23 270 0
322 3 450 23 505 80 917 240 1320 512 663 448 1136 1138 1314 1918 59 256 71
374 71 702 0 329 -11 440 -71 705 -144 637 -495 1228 -986 1661 -632 557
-1436 838 -2273 794z m410 -336 c449 -28 935 -198 1334 -465 173 -116 268
-193 415 -337 478 -469 760 -1052 836 -1730 14 -122 13 -466 0 -584 -60 -507
-222 -938 -505 -1342 -179 -256 -444 -518 -705 -698 -731 -503 -1645 -635
-2494 -361 -915 295 -1630 1064 -1866 2003 -59 237 -81 423 -81 690 0 270 21
452 81 691 258 1024 1067 1823 2095 2067 295 70 541 89 890 66z"/>
<path d="M3935 6316 c-37 -16 -82 -67 -93 -104 -4 -15 -7 -529 -7 -1142 l0
-1115 23 -37 c13 -20 40 -47 60 -60 l37 -23 1046 0 1045 0 41 27 c97 64 97
215 0 274 -31 18 -69 19 -977 24 l-945 5 -5 1032 c-5 1022 -5 1032 -26 1059
-11 15 -32 37 -46 47 -33 25 -113 32 -153 13z"/>
</g>
</svg>
